<?xml version="1.0" encoding="UTF-8"?>
<svg width="18px" height="18px" viewBox="0 0 18 18" version="1.1" xmlns="http://www.w3.org/2000/svg" xmlns:xlink="http://www.w3.org/1999/xlink">
    <!-- Generator: Sketch 52.1 (67048) - http://www.bohemiancoding.com/sketch -->
    <title>icon-编辑</title>
    <desc>Created with Sketch.</desc>
    <g id="组件" stroke="none" stroke-width="1" fill="none" fill-rule="evenodd">
        <g id="操作图标-启用" transform="translate(-33.000000, -1.000000)">
            <g id="分组-22">
                <g id="icon-编辑" transform="translate(32.000000, 0.000000)">
                    <g id="bianjicopy-2" transform="translate(2.000000, 2.000000)">
                        <path d="M15.8560054,2.89811706 C16.0479982,3.09016785 16.0479982,3.4014822 15.8560054,3.59353299 L7.593638,11.8559004 C7.50142765,11.9481386 7.37635486,11.9999721 7.24593005,12 L4.49180758,12 C4.22018975,12 4,11.7798102 4,11.5081924 L4,8.75406995 C4.00002785,8.62364514 4.05186141,8.49857235 4.14409961,8.406362 L12.406467,0.143994605 C12.5985178,-0.0479982017 12.9098322,-0.0479982017 13.1018829,0.143994605 L15.8560054,2.89811706 Z M14.338779,3.69796013 L12.2800725,1.63925359 L11.0820292,2.83729686 L13.1407357,4.8960034 L14.338779,3.69796013 Z" id="合并形状" fill="#127FFF" fill-rule="nonzero"></path>
                        <path d="M16,9.5 C16,10.5261438 16,12.0653595 16,14.1176471 C16,15.1572419 15.1572419,16 14.1176471,16 L1.88235294,16 C0.842758118,16 1.27313647e-16,15.1572419 0,14.1176471 L0,1.88235294 C-1.27313647e-16,0.842758118 0.842758118,2.22044605e-16 1.88235294,0 L6,0" id="路径" stroke="#127FFF" stroke-width="2" stroke-linecap="round" stroke-linejoin="round"></path>
                    </g>
                </g>
            </g>
        </g>
    </g>
</svg>