<?xml version="1.0" encoding="UTF-8"?>
<svg width="20px" height="18px" viewBox="0 0 20 18" version="1.1" xmlns="http://www.w3.org/2000/svg" xmlns:xlink="http://www.w3.org/1999/xlink">
    <!-- Generator: Sketch 52.1 (67048) - http://www.bohemiancoding.com/sketch -->
    <title>icon-删除</title>
    <desc>Created with Sketch.</desc>
    <g id="组件" stroke="none" stroke-width="1" fill="none" fill-rule="evenodd">
        <g id="操作图标-启用" transform="translate(-128.000000, -1.000000)" fill="#127FFF" fill-rule="nonzero">
            <g id="分组-22">
                <g id="icon-删除" transform="translate(128.000000, 0.000000)">
                    <path d="M19.265625,3.24819856 C19.671875,3.24819856 20,3.53642914 20,3.9111289 C20,4.28582866 19.671875,4.58847078 19.265625,4.58847078 L17.078125,4.58847078 L17.078125,16.521217 C17.078125,17.8903122 15.875,19 14.390625,19 L5.609375,19 C4.125,19 2.921875,17.8903122 2.921875,16.521217 L2.921875,4.60288231 L0.734375,4.60288231 C0.328125,4.60288231 0,4.30024019 0,3.92554043 C0,3.55084067 0.328125,3.24819856 0.734375,3.24819856 L5.375,3.24819856 L5.375,2.57085669 C5.375,1.70616493 6.140625,1 7.078125,1 L12.9375,1 C13.875,1 14.640625,1.70616493 14.640625,2.57085669 L14.640625,3.24819856 L19.265625,3.24819856 Z M10,15.6132906 C10.40625,15.6132906 10.734375,15.3106485 10.734375,14.9359488 L10.734375,7.73018415 C10.734375,7.35548439 10.40625,7.05284227 10,7.05284227 C9.59375,7.05284227 9.265625,7.35548439 9.265625,7.73018415 L9.265625,14.9359488 C9.265625,15.3106485 9.59375,15.6132906 10,15.6132906 Z M6.578125,15.6132906 C6.984375,15.6132906 7.3125,15.3106485 7.3125,14.9359488 L7.3125,7.73018415 C7.3125,7.35548439 6.984375,7.05284227 6.578125,7.05284227 C6.171875,7.05284227 5.84375,7.35548439 5.84375,7.73018415 L5.84375,14.9359488 C5.859375,15.3106485 6.1875,15.6132906 6.578125,15.6132906 Z M13.421875,15.6132906 C13.828125,15.6132906 14.15625,15.3106485 14.15625,14.9359488 L14.15625,7.73018415 C14.15625,7.35548439 13.828125,7.05284227 13.421875,7.05284227 C13.015625,7.05284227 12.6875,7.35548439 12.6875,7.73018415 L12.6875,14.9359488 C12.6875,15.3106485 13.015625,15.6132906 13.421875,15.6132906 Z" id="合并形状"></path>
                </g>
            </g>
        </g>
    </g>
</svg>